# xmcd
#
# Track frame offsets: 
#        150
#        16765
#        33544
#        57080
#        59010
#        75601
#        95675
#        117783
#        132119
#        161255
#        175868
#        199228
#        217695
#        239933
#        262445
#        277351
#        293011
#
# Disc length: 4053 seconds
#
# Revision: 1
# Processed by: cddbd v1.5.2PL0 Copyright (c) Steve Scherf et al.
# Submitted via: ExactAudioCopy v0.95b4
#
DISCID=000fd311
DTITLE=Terra Hazelton - Anybody's Baby
DYEAR=2004
DGENRE=Jazz
TTITLE0=I'M Gonna Lock My Heart
TTITLE1=Sugar Blues
TTITLE2=Anybody's Baby
TTITLE3=Laughter Has Vitamin A, B, and D
TTITLE4=On Revival Day
TTITLE5=Let's Do It
TTITLE6=Take It Right Back
TTITLE7=Now and Then
TTITLE8=Long John Blues
TTITLE9=Ain't He Sweet
TTITLE10=I'M Just A Lucky So - And - So
TTITLE11=Was That The Human Thing To Do?
TTITLE12=The Spinach Song
TTITLE13=The Gentleman Is A Dope
TTITLE14=Sunday
TTITLE15=Long As I'm Movin'
TTITLE16=What Do I Care For The Moon
EXTD=
EXTT0=
EXTT1=
EXTT2=
EXTT3=
EXTT4=
EXTT5=
EXTT6=
EXTT7=
EXTT8=
EXTT9=
EXTT10=
EXTT11=
EXTT12=
EXTT13=
EXTT14=
EXTT15=
EXTT16=
PLAYORDER=
